<svg id="svg" version="1.1" xmlns="http://www.w3.org/2000/svg" xmlns:xlink="http://www.w3.org/1999/xlink" width="8em" height="8em" viewBox="0, 0, 400,400"><g id="svgg"><path id="path0" d="M190.619 98.788 C 161.356 101.722,134.947 116.678,118.243 139.778 C 115.944 142.956,116.593 142.717,111.894 142.123 C 73.099 137.226,41.421 138.287,28.258 144.926 C -3.497 160.943,74.320 206.536,185.270 236.920 C 273.317 261.032,354.702 268.038,374.744 253.232 C 389.910 242.029,362.853 218.759,306.491 194.533 C 303.739 193.350,301.468 192.363,301.446 192.340 C 301.423 192.316,301.204 190.595,300.958 188.514 C 294.486 133.666,244.902 93.345,190.619 98.788 M106.216 160.744 C 106.216 160.856,105.726 162.224,105.126 163.784 C 100.314 176.306,100.815 179.125,109.063 185.923 C 142.026 213.089,253.054 241.794,289.324 232.528 C 296.649 230.657,298.222 228.332,300.247 216.384 C 300.918 212.425,300.672 212.586,303.159 214.486 C 324.391 230.719,311.487 241.720,273.514 239.758 C 194.353 235.668,77.265 190.951,87.230 168.614 C 88.983 164.684,94.196 162.385,105.135 160.717 C 105.507 160.661,105.902 160.598,106.014 160.577 C 106.125 160.557,106.216 160.632,106.216 160.744 M99.240 213.216 C 102.911 243.705,122.088 272.407,149.189 287.973 C 193.195 313.249,249.442 302.277,280.124 262.432 L 281.684 260.405 279.964 260.192 C 229.600 253.949,151.129 232.994,101.879 212.637 L 99.028 211.459 99.240 213.216 " stroke="none" fill="#ffffff" fill-rule="evenodd"></path></g></svg>